<svg width="956" height="496" viewBox="0 0 956 496" fill="none" xmlns="http://www.w3.org/2000/svg">
<g clip-path="url(#clip0_74_11)">
<path d="M956 3V29.0075H886.091V208H855.909V29.0075H786V3H956Z" fill="black"/>
<path d="M758 208H720.924L673.737 121.104H637.028V208H607V3L689.67 3C731.036 3 758 27.4776 758 62.3582C758 91.4254 739.002 113.149 708.055 119.269L758 208ZM689.67 30.2313H637.028V94.1791H689.67C712.651 94.1791 727.052 81.3284 727.052 62.3582C727.052 42.7761 712.651 30.2313 689.67 30.2313Z" fill="black"/>
<path d="M575 208H517.536L503.708 177.403L456.385 72.1492L409.062 177.403L395.234 208H339L433.953 3H457H480.047L575 208Z" fill="url(#paint0_linear_74_11)"/>
<path d="M339 3V29.0075H269.502V208H239.498V29.0075H170V3H339Z" fill="black"/>
<path d="M64.7013 211C45.474 211 21.0584 206.719 1.22078 197.851V167.577C20.7532 177.057 43.0325 183.172 64.7013 183.172C93.3896 183.172 110.481 170.941 110.481 151.675C110.481 135.774 99.7987 127.212 77.5195 121.096L51.2727 113.757C17.3961 103.971 0 84.4 0 56.2667C0 22.629 25.9416 0 67.7533 0C86.0649 0 110.175 4.28116 130.013 13.1493V42.5058C110.786 33.0261 88.5065 26.9101 68.0584 26.9101C44.2533 26.9101 29.9091 37.9188 29.9091 54.1261C29.9091 70.3333 40.2857 78.5899 63.1753 85.0116L89.4221 92.3507C122.993 102.136 141 121.401 141 150.146C141 186.536 112.007 211 64.7013 211Z" fill="black"/>
<path d="M381.5 496C316.132 496 278 454.743 278 391.098V276.922H334.076V388.22C334.076 421.801 349.457 443.229 381.5 443.229C413.543 443.229 428.924 421.801 428.924 388.22V209.351L456.962 147L485 209.351V391.098C485 454.743 446.868 496 381.5 496Z" fill="url(#paint1_diamond_74_11)"/>
<path d="M428.653 388.22C428.653 421.801 413.198 443.229 381 443.229V496C446.684 496 485 454.743 485 391.098V209.351L456.827 147L428.653 209.351V388.22Z" fill="url(#paint2_linear_74_11)"/>
<path d="M593.957 496C573.146 496 545.933 491.2 525.123 483.2V433.6C549.134 443.2 573.146 448 593.636 448C616.047 448 627.573 440.64 627.573 428.8C627.573 416.96 618.929 414.4 599.079 408.96L581.791 404.16C541.771 392.96 520 372.8 520 339.84C520 298.24 552.656 272 599.079 272C622.13 272 649.344 276.8 670.154 284.8V333.76C646.142 324.16 622.13 319.36 602.601 319.36C585.953 319.36 574.427 322.88 574.427 334.72C574.427 345.6 584.352 349.12 603.241 354.56L618.929 359.04C658.628 370.24 682 389.76 682 424C682 470.08 647.743 496 593.957 496Z" fill="black"/>
</g>
<defs>
<linearGradient id="paint0_linear_74_11" x1="457" y1="3" x2="457" y2="208" gradientUnits="userSpaceOnUse">
<stop stop-color="#3EFF54"/>
<stop offset="1" stop-color="#A312CF"/>
</linearGradient>
<radialGradient id="paint1_diamond_74_11" cx="0" cy="0" r="1" gradientUnits="userSpaceOnUse" gradientTransform="translate(381.5 364.036) rotate(90) scale(131.964 78.2708)">
<stop offset="0.0520565" stop-opacity="0"/>
<stop offset="0.305695" stop-opacity="0.23"/>
<stop offset="0.529199"/>
</radialGradient>
<linearGradient id="paint2_linear_74_11" x1="467.461" y1="195.698" x2="433.454" y2="471.251" gradientUnits="userSpaceOnUse">
<stop offset="0.227742" stop-color="#A412CE"/>
<stop offset="0.909874"/>
</linearGradient>
<clipPath id="clip0_74_11">
<rect width="956" height="496" fill="white"/>
</clipPath>
</defs>
</svg>
